<?xml version="1.0" encoding="UTF-8" standalone="no"?>
<svg
   xmlns:dc="http://purl.org/dc/elements/1.1/"
   xmlns:cc="http://creativecommons.org/ns#"
   xmlns:rdf="http://www.w3.org/1999/02/22-rdf-syntax-ns#"
   xmlns:svg="http://www.w3.org/2000/svg"
   xmlns="http://www.w3.org/2000/svg"
   xmlns:sodipodi="http://sodipodi.sourceforge.net/DTD/sodipodi-0.dtd"
   xmlns:inkscape="http://www.inkscape.org/namespaces/inkscape"
   viewBox="0 0 40 40"
   version="1.1"
   id="svg4"
   sodipodi:docname="process_stop.svg"
   width="40"
   height="40"
   inkscape:version="0.92.2 2405546, 2018-03-11">
  <metadata
     id="metadata10">
    <rdf:RDF>
      <cc:Work
         rdf:about="">
        <dc:format>image/svg+xml</dc:format>
        <dc:type
           rdf:resource="http://purl.org/dc/dcmitype/StillImage" />
        <dc:title />
      </cc:Work>
    </rdf:RDF>
  </metadata>
  <defs
     id="defs8" />
  <sodipodi:namedview
     pagecolor="#ffffff"
     bordercolor="#666666"
     borderopacity="1"
     objecttolerance="10"
     gridtolerance="10"
     guidetolerance="10"
     inkscape:pageopacity="0"
     inkscape:pageshadow="2"
     inkscape:window-width="1920"
     inkscape:window-height="1056"
     id="namedview6"
     showgrid="false"
     inkscape:pagecheckerboard="false"
     borderlayer="true"
     inkscape:zoom="14.75"
     inkscape:cx="-15.627119"
     inkscape:cy="21.966102"
     inkscape:window-x="0"
     inkscape:window-y="0"
     inkscape:window-maximized="1"
     inkscape:current-layer="svg4" />
  <path
     d="M 35.356146,11.08401 C 33.773892,8.3731021 31.62746,6.2266843 28.916564,4.6444283 26.205104,3.0621735 23.245063,2.2711866 20.034466,2.2711866 c -3.210318,0 -6.171205,0.7909869 -8.882101,2.3732417 -2.7111797,1.5819738 -4.8576119,3.72839 -6.4398631,6.4395817 -1.5825345,2.711168 -2.3735187,5.67207 -2.3735187,8.882093 0,3.210306 0.7912671,6.17064 2.3732357,8.882092 1.5822515,2.710625 3.7286839,4.857326 6.4398621,6.439582 2.71118,1.582255 5.671785,2.373242 8.8821,2.373242 3.210318,0 6.171204,-0.790987 8.8821,-2.373242 2.710896,-1.581973 4.857329,-3.728674 6.439581,-6.439582 1.58197,-2.711167 2.372953,-5.672069 2.372953,-8.882092 0,-3.210307 -0.790983,-6.171209 -2.372669,-8.882093 z m -6.981421,13.052218 c 0.291849,0.291553 0.438052,0.637724 0.438052,1.037017 0,0.41458 -0.146219,0.768076 -0.438052,1.059643 l -2.07347,2.073749 c -0.291847,0.291848 -0.645061,0.437771 -1.059924,0.437771 -0.399309,0 -0.745454,-0.146041 -1.036735,-0.437771 l -4.170415,-4.170409 -4.170412,4.170409 c -0.291849,0.291848 -0.637426,0.437771 -1.036736,0.437771 -0.414863,0 -0.768077,-0.146041 -1.059925,-0.437771 l -2.073752,-2.073749 c -0.291848,-0.291554 -0.437771,-0.645063 -0.437771,-1.059643 0,-0.399293 0.145925,-0.745451 0.437771,-1.037017 l 4.170413,-4.170125 -4.170413,-4.170409 c -0.291848,-0.291554 -0.437771,-0.637442 -0.437771,-1.036733 0,-0.414864 0.145925,-0.768077 0.437771,-1.059925 l 2.073752,-2.073467 c 0.291849,-0.291849 0.645062,-0.437772 1.059925,-0.437772 0.39931,0 0.744889,0.146041 1.036736,0.437772 l 4.170412,4.170125 4.170415,-4.170125 c 0.291282,-0.291849 0.637426,-0.437772 1.036735,-0.437772 0.414863,0 0.768077,0.146041 1.059924,0.437772 l 2.07347,2.073467 c 0.291849,0.291848 0.438052,0.645061 0.438052,1.059925 0,0.399291 -0.146219,0.745168 -0.438052,1.036733 l -4.170129,4.170409 z"
     id="path2"
     inkscape:connector-curvature="0"
     style="fill:#e43f50;stroke-width:0.99999994;fill-opacity:1" />
</svg>
