<?xml version="1.0" encoding="UTF-8" standalone="no"?>
<!-- Created with Inkscape (http://www.inkscape.org/) -->

<svg
   xmlns:osb="http://www.openswatchbook.org/uri/2009/osb"
   xmlns:dc="http://purl.org/dc/elements/1.1/"
   xmlns:cc="http://creativecommons.org/ns#"
   xmlns:rdf="http://www.w3.org/1999/02/22-rdf-syntax-ns#"
   xmlns:svg="http://www.w3.org/2000/svg"
   xmlns="http://www.w3.org/2000/svg"
   xmlns:sodipodi="http://sodipodi.sourceforge.net/DTD/sodipodi-0.dtd"
   xmlns:inkscape="http://www.inkscape.org/namespaces/inkscape"
   sodipodi:docname="menu_settings.svg"
   inkscape:export-filename="/home/sam/img/source-symbolic.png"
   inkscape:export-xdpi="270"
   inkscape:export-ydpi="270"
   height="64"
   id="svg7384"
   style="enable-background:new"
   version="1.1"
   inkscape:version="0.92.2 2405546, 2018-03-11"
   width="64">
  <sodipodi:namedview
     inkscape:bbox-nodes="true"
     inkscape:bbox-paths="true"
     bordercolor="#666666"
     borderlayer="false"
     borderopacity="1"
     inkscape:current-layer="layer9"
     inkscape:cx="43.703702"
     inkscape:cy="29.913307"
     gridtolerance="10"
     inkscape:guide-bbox="true"
     guidetolerance="10"
     id="namedview88"
     inkscape:object-nodes="true"
     inkscape:object-paths="true"
     objecttolerance="10"
     pagecolor="#ffffff"
     inkscape:pageopacity="1"
     inkscape:pageshadow="2"
     showborder="true"
     showgrid="false"
     showguides="true"
     inkscape:showpageshadow="false"
     inkscape:snap-bbox="true"
     inkscape:snap-bbox-edge-midpoints="true"
     inkscape:snap-bbox-midpoints="false"
     inkscape:snap-center="false"
     inkscape:snap-global="true"
     inkscape:snap-grids="true"
     inkscape:snap-intersection-paths="true"
     inkscape:snap-midpoints="true"
     inkscape:snap-nodes="false"
     inkscape:snap-object-midpoints="true"
     inkscape:snap-others="true"
     inkscape:snap-page="true"
     inkscape:snap-smooth-nodes="true"
     inkscape:snap-to-guides="true"
     inkscape:window-height="1016"
     inkscape:window-maximized="1"
     inkscape:window-width="1920"
     inkscape:window-x="1920"
     inkscape:window-y="0"
     inkscape:zoom="8"
     inkscape:pagecheckerboard="true">
    <inkscape:grid
       color="#000000"
       dotted="false"
       empcolor="#0800ff"
       empopacity="0.4627451"
       empspacing="4"
       enabled="true"
       id="grid4866"
       opacity="0.16470588"
       originx="-264.0002"
       originy="-548.00336"
       snapvisiblegridlinesonly="true"
       spacingx="0.25"
       spacingy="0.25"
       type="xygrid"
       visible="true" />
  </sodipodi:namedview>
  <metadata
     id="metadata90">
    <rdf:RDF>
      <cc:Work
         rdf:about="">
        <dc:format>image/svg+xml</dc:format>
        <dc:type
           rdf:resource="http://purl.org/dc/dcmitype/StillImage" />
        <dc:title>Paper Symbolic Icon Theme</dc:title>
      </cc:Work>
    </rdf:RDF>
  </metadata>
  <title
     id="title8473">Paper Symbolic Icon Theme</title>
  <defs
     id="defs7386">
    <linearGradient
       id="linearGradient5606"
       osb:paint="solid">
      <stop
         id="stop5608"
         offset="0"
         style="stop-color:#000000;stop-opacity:1;" />
    </linearGradient>
    <filter
       inkscape:collect="always"
       id="filter7554"
       style="color-interpolation-filters:sRGB">
      <feBlend
         inkscape:collect="always"
         id="feBlend7556"
         in2="BackgroundImage"
         mode="darken" />
    </filter>
  </defs>
  <g
     inkscape:groupmode="layer"
     id="layer9"
     inkscape:label="status"
     style="display:inline"
     transform="translate(-505.0004,379.00336)">
    <g
       id="g5648"
       inkscape:label="dialog-error"
       style="color:#555555;display:inline;visibility:visible;fill:none;stroke:none;stroke-width:1.78124988;marker:none"
       transform="translate(465.0004,-849.00336)" />
    <path
       style="opacity:1;fill:#d7d7d7;fill-opacity:1;stroke:none;stroke-width:3.80357099"
       d="M 32 5.375 C 17.29527 5.375 5.375 17.29585 5.375 32 C 5.375 46.70473 17.29527 58.625 32 58.625 C 46.70473 58.625 58.625 46.70473 58.625 32 C 58.625 17.29585 46.70473 5.375 32 5.375 z M 27.794922 15.175781 L 36.205078 15.175781 L 36.576172 19.617188 A 13.218597 13.218597 0 0 1 40.449219 21.837891 L 44.466797 19.945312 L 48.673828 27.230469 L 45.025391 29.761719 A 13.218597 13.218597 0 0 1 45.21875 32 A 13.218597 13.218597 0 0 1 45.017578 34.230469 L 48.673828 36.769531 L 44.466797 44.054688 L 40.439453 42.158203 A 13.218597 13.218597 0 0 1 36.576172 44.392578 L 36.205078 48.824219 L 27.794922 48.824219 L 27.423828 44.382812 A 13.218597 13.218597 0 0 1 23.550781 42.162109 L 19.533203 44.054688 L 15.326172 36.769531 L 18.974609 34.238281 A 13.218597 13.218597 0 0 1 18.78125 32 A 13.218597 13.218597 0 0 1 18.982422 29.769531 L 15.326172 27.230469 L 19.533203 19.945312 L 23.560547 21.841797 A 13.218597 13.218597 0 0 1 27.423828 19.607422 L 27.794922 15.175781 z M 32 27.193359 A 4.8067628 4.8067628 0 0 0 27.193359 32 A 4.8067628 4.8067628 0 0 0 32 36.806641 A 4.8067628 4.8067628 0 0 0 36.806641 32 A 4.8067628 4.8067628 0 0 0 32 27.193359 z "
       transform="translate(505.0004,-379.00336)"
       id="path5652" />
  </g>
  <g
     inkscape:groupmode="layer"
     id="layer10"
     inkscape:label="devices"
     style="display:inline;filter:url(#filter7554)"
     transform="translate(-505.0004,379.00336)" />
  <g
     inkscape:groupmode="layer"
     id="layer1"
     inkscape:label="places"
     style="display:inline"
     transform="translate(-264.0002,-237.99664)" />
  <g
     inkscape:groupmode="layer"
     id="layer14"
     inkscape:label="mimetypes"
     style="display:inline"
     transform="translate(-505.0004,379.00336)" />
  <g
     inkscape:groupmode="layer"
     id="layer15"
     inkscape:label="emblems"
     style="display:inline"
     transform="translate(-505.0004,379.00336)" />
  <g
     inkscape:groupmode="layer"
     id="g71291"
     inkscape:label="emotes"
     style="display:inline"
     transform="translate(-505.0004,379.00336)" />
  <g
     inkscape:groupmode="layer"
     id="layer2"
     inkscape:label="categories"
     style="display:inline"
     transform="translate(-264.0002,-87.99664)" />
  <g
     inkscape:groupmode="layer"
     id="g6058"
     inkscape:label="apps"
     style="display:inline"
     transform="translate(-264.0002,-87.99664)" />
  <g
     inkscape:groupmode="layer"
     id="layer12"
     inkscape:label="actions"
     style="display:inline"
     transform="translate(-505.0004,379.00336)" />
</svg>
