<?xml version="1.0" encoding="UTF-8" standalone="no"?>
<svg
   viewBox="0 0 128 128"
   version="1.1"
   id="svg4"
   width="128"
   height="128"
   xmlns="http://www.w3.org/2000/svg"
   xmlns:svg="http://www.w3.org/2000/svg">
  <path
     d="M 83.2,43.999999 H 6.4 c -3.5346224,0 -6.4,2.865378 -6.4,6.4 V 108 c 0,3.53462 2.8653776,6.4 6.4,6.4 h 76.8 c 3.534622,0 6.4,-2.86538 6.4,-6.4 V 50.399999 c 0,-3.534622 -2.865378,-6.4 -6.4,-6.4 z m -64,12.8 c 2.588556,0 4.922244,1.559318 5.912784,3.95079 0.99054,2.391464 0.442846,5.144086 -1.38753,6.974464 -1.830378,1.830376 -4.582999,2.37807 -6.974465,1.38753 C 14.359319,68.122243 12.8,65.788555 12.8,63.199999 c 0,-3.534622 2.865378,-6.4 6.4,-6.4 z M 76.8,101.6 h -64 V 95.2 L 25.6,82.399999 32,88.8 57.6,63.199999 l 19.2,19.2 z"
     id="path2"
     style="stroke-width:0.2" />
  <path
     d="M 121.6,11.999999 H 32 c -3.534622,0 -6.4,2.865378 -6.4,6.4 v 19.2 h 32 v -12.8 H 96 V 88.8 h 25.6 c 3.53462,0 6.4,-2.865379 6.4,-6.400001 v -64 c 0,-3.534622 -2.86538,-6.4 -6.4,-6.4 z m -75.2,20.6 c 0,0.994112 -0.805888,1.8 -1.8,1.8 h -6 c -0.994112,0 -1.8,-0.805888 -1.8,-1.8 v -6 c 0,-0.994112 0.805888,-1.8 1.8,-1.8 h 6 c 0.994112,0 1.8,0.805888 1.8,1.8 z m 70.4,41.6 c 0,0.994112 -0.80589,1.8 -1.8,1.8 h -6 c -0.99411,0 -1.8,-0.805888 -1.8,-1.8 v -6 c 0,-0.994112 0.80589,-1.8 1.8,-1.8 h 6 c 0.99411,0 1.8,0.805888 1.8,1.8 z m 0,-20.8 c 0,0.994112 -0.80589,1.8 -1.8,1.8 h -6 c -0.99411,0 -1.8,-0.805888 -1.8,-1.8 v -6 c 0,-0.994112 0.80589,-1.8 1.8,-1.8 h 6 c 0.99411,0 1.8,0.805888 1.8,1.8 z m 0,-20.8 c 0,0.994112 -0.80589,1.8 -1.8,1.8 h -6 c -0.99411,0 -1.8,-0.805888 -1.8,-1.8 v -6 c 0,-0.994112 0.80589,-1.8 1.8,-1.8 h 6 c 0.99411,0 1.8,0.805888 1.8,1.8 z"
     id="path2-3"
     style="opacity:0.66;stroke-width:0.2" />
</svg>
