<?xml version="1.0" encoding="UTF-8" standalone="no"?>
<svg
   xmlns:dc="http://purl.org/dc/elements/1.1/"
   xmlns:cc="http://creativecommons.org/ns#"
   xmlns:rdf="http://www.w3.org/1999/02/22-rdf-syntax-ns#"
   xmlns:svg="http://www.w3.org/2000/svg"
   xmlns="http://www.w3.org/2000/svg"
   xmlns:sodipodi="http://sodipodi.sourceforge.net/DTD/sodipodi-0.dtd"
   xmlns:inkscape="http://www.inkscape.org/namespaces/inkscape"
   width="24"
   height="24"
   viewBox="0 0 24 24"
   version="1.1"
   id="svg6"
   sodipodi:docname="baseline-screen_rotation-24px.svg"
   inkscape:version="0.92.4 5da689c313, 2019-01-14">
  <metadata
     id="metadata12">
    <rdf:RDF>
      <cc:Work
         rdf:about="">
        <dc:format>image/svg+xml</dc:format>
        <dc:type
           rdf:resource="http://purl.org/dc/dcmitype/StillImage" />
      </cc:Work>
    </rdf:RDF>
  </metadata>
  <defs
     id="defs10" />
  <sodipodi:namedview
     pagecolor="#ffffff"
     bordercolor="#666666"
     borderopacity="1"
     objecttolerance="10"
     gridtolerance="10"
     guidetolerance="10"
     inkscape:pageopacity="0"
     inkscape:pageshadow="2"
     inkscape:window-width="640"
     inkscape:window-height="480"
     id="namedview8"
     showgrid="false"
     inkscape:zoom="9.8333333"
     inkscape:cx="12"
     inkscape:cy="12"
     inkscape:current-layer="svg6" />
  <path
     d="M 0.71186451,0.71186451 H 23.288137 V 23.288137 H 0.71186451 Z"
     id="path2"
     inkscape:connector-curvature="0"
     style="fill:none;stroke-width:1" />
  <path
     d="m 16.214238,3.082373 c 3.076017,1.458051 5.277203,4.4400002 5.615847,7.976949 h 1.411017 C 22.761357,5.264746 17.916865,0.71186451 12.000001,0.71186451 l -0.620848,0.0282201 3.583984,3.58398299 z M 10.335,2.358051 c -0.5549996,-0.555 -1.4486437,-0.555 -1.994237,0 L 2.358051,8.340763 c -0.555,0.5550001 -0.555,1.4486441 0,1.994237 l 11.30695,11.30695 c 0.555,0.555 1.448644,0.555 1.994237,0 l 5.982712,-5.982712 c 0.555,-0.555 0.555,-1.448644 0,-1.994237 z M 14.662119,20.644831 3.3551697,9.3378817 9.3378817,3.3551697 20.644831,14.662119 Z M 7.785763,20.917628 C 4.709746,19.468983 2.5085595,16.477627 2.1699154,12.940678 H 0.75889839 C 1.2386441,18.735255 6.0831359,23.288137 12.000001,23.288137 l 0.620847,-0.02823 -3.5839832,-3.583983 z"
     id="path4"
     inkscape:connector-curvature="0"
     style="stroke-width:1" />
</svg>
