<?xml version="1.0" encoding="UTF-8" standalone="no"?>
<svg
   xmlns:dc="http://purl.org/dc/elements/1.1/"
   xmlns:cc="http://creativecommons.org/ns#"
   xmlns:rdf="http://www.w3.org/1999/02/22-rdf-syntax-ns#"
   xmlns:svg="http://www.w3.org/2000/svg"
   xmlns="http://www.w3.org/2000/svg"
   xmlns:sodipodi="http://sodipodi.sourceforge.net/DTD/sodipodi-0.dtd"
   xmlns:inkscape="http://www.inkscape.org/namespaces/inkscape"
   width="24"
   height="24"
   viewBox="0 0 24 24"
   version="1.1"
   id="svg6"
   sodipodi:docname="baseline-local_movies_library-24px.svg"
   inkscape:version="1.0.1 (3bc2e813f5, 2020-09-07)">
  <metadata
     id="metadata12">
    <rdf:RDF>
      <cc:Work
         rdf:about="">
        <dc:format>image/svg+xml</dc:format>
        <dc:type
           rdf:resource="http://purl.org/dc/dcmitype/StillImage" />
      </cc:Work>
    </rdf:RDF>
  </metadata>
  <defs
     id="defs10" />
  <sodipodi:namedview
     pagecolor="#ffffff"
     bordercolor="#666666"
     borderopacity="1"
     objecttolerance="10"
     gridtolerance="10"
     guidetolerance="10"
     inkscape:pageopacity="0"
     inkscape:pageshadow="2"
     inkscape:window-width="1720"
     inkscape:window-height="1355"
     id="namedview8"
     showgrid="false"
     inkscape:snap-page="true"
     inkscape:snap-center="true"
     inkscape:snap-object-midpoints="true"
     inkscape:zoom="24.871029"
     inkscape:cx="9.4884106"
     inkscape:cy="6.841887"
     inkscape:window-x="1720"
     inkscape:window-y="0"
     inkscape:window-maximized="0"
     inkscape:current-layer="g846"
     inkscape:snap-bbox="true"
     inkscape:bbox-nodes="true"
     inkscape:bbox-paths="true"
     inkscape:snap-others="true" />
  <g
     id="g846">
    <path
       id="path2"
       style="stroke-width:0.88973"
       d="M 19.30938,1.9999999 V 3.7794598 H 17.52992 V 1.9999999 H 10.412081 V 3.7794598 H 8.6326203 V 1.9999999 h -1.77946 V 18.015139 h 1.77946 v -1.77946 h 1.7794607 v 1.77946 h 7.117839 v -1.77946 h 1.77946 v 1.77946 h 1.77946 V 1.9999999 Z M 10.412081,14.456219 H 8.6326203 v -1.77946 h 1.7794607 z m 0,-3.55892 H 8.6326203 V 9.1178394 h 1.7794607 z m 0,-3.5589195 H 8.6326203 V 5.5589196 h 1.7794607 z m 8.897299,7.1178395 h -1.77946 v -1.77946 h 1.77946 z m 0,-3.55892 H 17.52992 V 9.1178394 h 1.77946 z m 0,-3.5589195 H 17.52992 V 5.5589196 h 1.77946 z M 4.8889244,6.0000002 h -2 V 20 c 0,1.1 0.9,2 2,2 H 18.888925 V 20 H 4.8889244 Z"
       sodipodi:nodetypes="cccccccccccccccccccccccccccccccccccccccccccccccccccccsscccc" />
  </g>
  <path
     d="M 1.2889248,0 H 25.288925 V 24 H 1.2889248 Z"
     fill="none"
     id="path4" />
</svg>
