<?xml version="1.0" encoding="UTF-8" standalone="no"?>
<svg
   width="24"
   height="24"
   viewBox="0 0 24 24"
   version="1.1"
   id="svg6"
   xmlns:inkscape="http://www.inkscape.org/namespaces/inkscape"
   xmlns:sodipodi="http://sodipodi.sourceforge.net/DTD/sodipodi-0.dtd"
   xmlns="http://www.w3.org/2000/svg">
   <path
      id="path2"
      style="stroke-width:0.88973"
      d="M 19.30938,1.9999999 V 3.7794598 H 17.52992 V 1.9999999 H 10.412081 V 3.7794598 H 8.6326203 V 1.9999999 h -1.77946 V 18.015139 h 1.77946 v -1.77946 h 1.7794607 v 1.77946 h 7.117839 v -1.77946 h 1.77946 v 1.77946 h 1.77946 V 1.9999999 Z M 10.412081,14.456219 H 8.6326203 v -1.77946 h 1.7794607 z m 0,-3.55892 H 8.6326203 V 9.1178394 h 1.7794607 z m 0,-3.5589195 H 8.6326203 V 5.5589196 h 1.7794607 z m 8.897299,7.1178395 h -1.77946 v -1.77946 h 1.77946 z m 0,-3.55892 H 17.52992 V 9.1178394 h 1.77946 z m 0,-3.5589195 H 17.52992 V 5.5589196 h 1.77946 z"
      sodipodi:nodetypes="ccccccccccccccccccccccccccccccccccccccccccccccccccc" />
   <path
      id="path2-3"
      style="stroke-width:0.88973;opacity:0.66"
      d="m 4.8889249,6.0000002 h -2 V 20 c 0,1.1 0.9,2 2,2 H 18.888925 V 20 H 4.8889249 Z"
      sodipodi:nodetypes="ccsscccc" />
</svg>
