<?xml version="1.0" encoding="UTF-8" standalone="no"?>
<svg
   width="24"
   height="24"
   viewBox="0 0 24 24"
   version="1.1"
   id="svg6"
   xmlns="http://www.w3.org/2000/svg">
  <path
     d="m 12,6.7 c -2.76,0 -5,2.24 -5,5 0,2.76 2.24,5 5,5 2.76,0 5,-2.24 5,-5 0,-2.76 -2.24,-5 -5,-5 z m 0,8 c -1.65,0 -3,-1.35 -3,-3 0,-1.65 1.35,-3 3,-3 1.65,0 3,1.35 3,3 0,1.65 -1.35,3 -3,3 z"
     id="path4" />
  <path
     d="M 20,4 H 16.829999 L 15,2 H 8.9999995 l -1.83,2 h -3.17 c -1.1,0 -2,0.9 -2,2 v 12 c 0,1.1 0.9,2 2,2 H 20 c 1.1,0 1.999999,-0.9 1.999999,-2 V 6 C 21.999999,4.9 21.1,4 20,4 Z m 0,14 H 3.9999995 V 6 h 4.05 l 1.83,-2 H 14.12 l 1.83,2 H 20 Z"
     id="path4-3"
     style="opacity:0.66" />
</svg>
