<?xml version="1.0" encoding="UTF-8" standalone="no"?>
<!-- Created with Inkscape (http://www.inkscape.org/) -->

<svg
   xmlns:dc="http://purl.org/dc/elements/1.1/"
   xmlns:cc="http://creativecommons.org/ns#"
   xmlns:rdf="http://www.w3.org/1999/02/22-rdf-syntax-ns#"
   xmlns:svg="http://www.w3.org/2000/svg"
   xmlns="http://www.w3.org/2000/svg"
   xmlns:sodipodi="http://sodipodi.sourceforge.net/DTD/sodipodi-0.dtd"
   xmlns:inkscape="http://www.inkscape.org/namespaces/inkscape"
   width="128"
   height="128"
   id="svg4359"
   version="1.1"
   inkscape:version="0.92.4 5da689c313, 2019-01-14"
   sodipodi:docname="generic_smartphone2.svg">
  <title
     id="title823">smartphone</title>
  <defs
     id="defs4361">
    <linearGradient
       id="linearGradient4103">
      <stop
         style="stop-color:#bdecfb;stop-opacity:1"
         offset="0"
         id="stop4105" />
      <stop
         style="stop-color:#f5feff;stop-opacity:1"
         offset="1"
         id="stop4107" />
    </linearGradient>
    <linearGradient
       id="linearGradient4314">
      <stop
         style="stop-color:#ff4b00;stop-opacity:1"
         offset="0"
         id="stop4316" />
      <stop
         style="stop-color:#ff5500;stop-opacity:1"
         offset="1"
         id="stop4318" />
    </linearGradient>
    <linearGradient
       id="linearGradient5020-1">
      <stop
         id="stop5022-6"
         offset="0"
         style="stop-color:#0da8db;stop-opacity:1" />
      <stop
         id="stop5024-0"
         offset="1"
         style="stop-color:#1fe1fb;stop-opacity:1" />
    </linearGradient>
  </defs>
  <sodipodi:namedview
     id="base"
     pagecolor="#ffffff"
     bordercolor="#666666"
     borderopacity="1.0"
     inkscape:pageopacity="0.0"
     inkscape:pageshadow="2"
     inkscape:zoom="32"
     inkscape:cx="59.106531"
     inkscape:cy="107.64928"
     inkscape:current-layer="layer1"
     showgrid="true"
     inkscape:grid-bbox="true"
     inkscape:document-units="px"
     inkscape:window-width="1920"
     inkscape:window-height="1056"
     inkscape:window-x="0"
     inkscape:window-y="0"
     inkscape:window-maximized="1"
     inkscape:showpageshadow="false"
     borderlayer="true"
     showguides="true"
     fit-margin-top="0"
     fit-margin-left="0"
     fit-margin-right="0"
     fit-margin-bottom="0"
     inkscape:guide-bbox="true"
     inkscape:snap-others="true"
     inkscape:snap-bbox="true"
     inkscape:bbox-nodes="true"
     inkscape:snap-nodes="false"
     inkscape:snap-object-midpoints="true">
    <inkscape:grid
       type="xygrid"
       id="grid4105"
       originx="0"
       originy="0"
       spacingx="1"
       spacingy="1"
       empspacing="8" />
    <sodipodi:guide
       position="38,115"
       orientation="0,1"
       id="guide827"
       inkscape:locked="false" />
    <sodipodi:guide
       position="64,120"
       orientation="1,0"
       id="guide24"
       inkscape:locked="false" />
  </sodipodi:namedview>
  <metadata
     id="metadata4364">
    <rdf:RDF>
      <cc:Work
         rdf:about="">
        <dc:format>image/svg+xml</dc:format>
        <dc:type
           rdf:resource="http://purl.org/dc/dcmitype/StillImage" />
        <dc:title>smartphone</dc:title>
        <cc:license
           rdf:resource="http://creativecommons.org/licenses/by-sa/4.0/" />
        <dc:creator>
          <cc:Agent>
            <dc:title>Emeric Grange</dc:title>
          </cc:Agent>
        </dc:creator>
      </cc:Work>
      <cc:License
         rdf:about="http://creativecommons.org/licenses/by-sa/4.0/">
        <cc:permits
           rdf:resource="http://creativecommons.org/ns#Reproduction" />
        <cc:permits
           rdf:resource="http://creativecommons.org/ns#Distribution" />
        <cc:requires
           rdf:resource="http://creativecommons.org/ns#Notice" />
        <cc:requires
           rdf:resource="http://creativecommons.org/ns#Attribution" />
        <cc:permits
           rdf:resource="http://creativecommons.org/ns#DerivativeWorks" />
        <cc:requires
           rdf:resource="http://creativecommons.org/ns#ShareAlike" />
      </cc:License>
    </rdf:RDF>
  </metadata>
  <g
     id="layer1"
     inkscape:label="Layer 1"
     inkscape:groupmode="layer"
     transform="translate(-3,83)">
    <path
       style="color:#000000;clip-rule:nonzero;display:inline;overflow:visible;visibility:visible;opacity:0.6;isolation:auto;mix-blend-mode:normal;color-interpolation:sRGB;color-interpolation-filters:linearRGB;solid-color:#000000;solid-opacity:1;fill-opacity:1;fill-rule:nonzero;stroke:none;stroke-width:1;stroke-linecap:butt;stroke-linejoin:miter;stroke-miterlimit:4;stroke-dasharray:none;stroke-dashoffset:0;stroke-opacity:1;color-rendering:auto;image-rendering:auto;shape-rendering:auto;text-rendering:auto;enable-background:accumulate"
       d="M 29 8 L 27 10 L 27 118 L 29 120 L 99 120 L 101 118 L 101 10 L 99 8 L 29 8 z M 51 10.5 A 2.5 2.4999979 0 0 1 53.5 13 A 2.5 2.4999979 0 0 1 51 15.5 A 2.5 2.4999979 0 0 1 48.5 13 A 2.5 2.4999979 0 0 1 51 10.5 z M 56.892578 12 L 71.107422 12 C 71.602066 12 72 12.446 72 13 C 72 13.554 71.602066 14 71.107422 14 L 56.892578 14 C 56.397934 14 56 13.554 56 13 C 56 12.446 56.397934 12 56.892578 12 z M 75 12 A 1.0000012 0.99999934 0 0 1 76 13 A 1.0000012 0.99999934 0 0 1 75 14 A 1.0000012 0.99999934 0 0 1 74 13 A 1.0000012 0.99999934 0 0 1 75 12 z M 78 12 A 1.0000012 0.99999934 0 0 1 79 13 A 1.0000012 0.99999934 0 0 1 78 14 A 1.0000012 0.99999934 0 0 1 77 13 A 1.0000012 0.99999934 0 0 1 78 12 z M 34 18 L 94 18 L 94 110 L 34 110 L 34 18 z "
       transform="translate(3,-83)"
       id="rect4156" />
    <rect
       style="opacity:1;fill:#ffffff;fill-opacity:1;fill-rule:nonzero;stroke:none;stroke-width:3;stroke-miterlimit:4;stroke-dasharray:none;stroke-dashoffset:15;stroke-opacity:1;paint-order:stroke fill markers"
       id="rect20-36"
       width="15.999996"
       height="2"
       x="59"
       y="31"
       rx="0.89286"
       ry="1.51782" />
  </g>
</svg>
