<?xml version="1.0" encoding="UTF-8" standalone="no"?>
<!-- Created with Inkscape (http://www.inkscape.org/) -->

<svg
   width="128"
   height="128"
   id="svg4359"
   version="1.1"
   inkscape:version="1.1.1 (3bf5ae0d25, 2021-09-20)"
   sodipodi:docname="generic_smartphone.svg"
   xmlns:inkscape="http://www.inkscape.org/namespaces/inkscape"
   xmlns:sodipodi="http://sodipodi.sourceforge.net/DTD/sodipodi-0.dtd"
   xmlns="http://www.w3.org/2000/svg"
   xmlns:svg="http://www.w3.org/2000/svg"
   xmlns:rdf="http://www.w3.org/1999/02/22-rdf-syntax-ns#"
   xmlns:cc="http://creativecommons.org/ns#"
   xmlns:dc="http://purl.org/dc/elements/1.1/">
  <title
     id="title823">smartphone</title>
  <defs
     id="defs4361">
    <linearGradient
       id="linearGradient4103">
      <stop
         style="stop-color:#bdecfb;stop-opacity:1"
         offset="0"
         id="stop4105" />
      <stop
         style="stop-color:#f5feff;stop-opacity:1"
         offset="1"
         id="stop4107" />
    </linearGradient>
    <linearGradient
       id="linearGradient4314">
      <stop
         style="stop-color:#ff4b00;stop-opacity:1"
         offset="0"
         id="stop4316" />
      <stop
         style="stop-color:#ff5500;stop-opacity:1"
         offset="1"
         id="stop4318" />
    </linearGradient>
    <linearGradient
       id="linearGradient5020-1">
      <stop
         id="stop5022-6"
         offset="0"
         style="stop-color:#0da8db;stop-opacity:1" />
      <stop
         id="stop5024-0"
         offset="1"
         style="stop-color:#1fe1fb;stop-opacity:1" />
    </linearGradient>
  </defs>
  <sodipodi:namedview
     id="base"
     pagecolor="#ffffff"
     bordercolor="#666666"
     borderopacity="1.0"
     inkscape:pageopacity="0.0"
     inkscape:pageshadow="2"
     inkscape:zoom="8.1674279"
     inkscape:cx="52.035966"
     inkscape:cy="54.668374"
     inkscape:current-layer="layer1"
     showgrid="true"
     inkscape:grid-bbox="true"
     inkscape:document-units="px"
     inkscape:window-width="1920"
     inkscape:window-height="1056"
     inkscape:window-x="0"
     inkscape:window-y="0"
     inkscape:window-maximized="1"
     inkscape:showpageshadow="false"
     borderlayer="true"
     showguides="true"
     fit-margin-top="0"
     fit-margin-left="0"
     fit-margin-right="0"
     fit-margin-bottom="0"
     inkscape:guide-bbox="true"
     inkscape:snap-others="true"
     inkscape:snap-bbox="true"
     inkscape:bbox-nodes="true"
     inkscape:snap-nodes="false"
     inkscape:snap-object-midpoints="true"
     inkscape:pagecheckerboard="0"
     inkscape:snap-bbox-edge-midpoints="true">
    <inkscape:grid
       type="xygrid"
       id="grid4105"
       originx="0"
       originy="0"
       spacingx="1"
       spacingy="1"
       empspacing="8" />
    <sodipodi:guide
       position="64,120"
       orientation="1,0"
       id="guide24"
       inkscape:locked="false" />
  </sodipodi:namedview>
  <metadata
     id="metadata4364">
    <rdf:RDF>
      <cc:Work
         rdf:about="">
        <dc:format>image/svg+xml</dc:format>
        <dc:type
           rdf:resource="http://purl.org/dc/dcmitype/StillImage" />
        <dc:title>smartphone</dc:title>
        <cc:license
           rdf:resource="http://creativecommons.org/licenses/by-sa/4.0/" />
        <dc:creator>
          <cc:Agent>
            <dc:title>Emeric Grange</dc:title>
          </cc:Agent>
        </dc:creator>
      </cc:Work>
      <cc:License
         rdf:about="http://creativecommons.org/licenses/by-sa/4.0/">
        <cc:permits
           rdf:resource="http://creativecommons.org/ns#Reproduction" />
        <cc:permits
           rdf:resource="http://creativecommons.org/ns#Distribution" />
        <cc:requires
           rdf:resource="http://creativecommons.org/ns#Notice" />
        <cc:requires
           rdf:resource="http://creativecommons.org/ns#Attribution" />
        <cc:permits
           rdf:resource="http://creativecommons.org/ns#DerivativeWorks" />
        <cc:requires
           rdf:resource="http://creativecommons.org/ns#ShareAlike" />
      </cc:License>
    </rdf:RDF>
  </metadata>
  <g
     id="layer1"
     inkscape:label="Layer 1"
     inkscape:groupmode="layer"
     transform="translate(-3,83)"
     style="opacity:1">
    <path
       id="rect920"
       style="opacity:0.66;fill:#010101;fill-opacity:1;stroke-width:1.87297;paint-order:markers fill stroke"
       d="M 44.888672,-75 C 39.410045,-75 35,-70.589955 35,-65.111328 V 27.11133 C 35,32.58995 39.410045,37 44.888672,37 H 89.111328 C 94.589955,37 99,32.58995 99,27.11133 V -65.111328 C 99,-70.589955 94.589955,-75 89.111328,-75 Z m 0.847656,1.996094 h 42.707031 c 4.740192,0 8.556641,3.814495 8.556641,8.554687 V 26.44336 C 97,31.18355 93.183551,35 88.443359,35 H 45.736328 c -4.740192,0 -8.554687,-3.81645 -8.554687,-8.55664 v -90.892579 c 0,-4.740192 3.814495,-8.554687 8.554687,-8.554687 z" />
    <path
       id="rect916-3"
       style="opacity:0.33;fill:#010101;fill-opacity:1;stroke-width:1.96459;paint-order:markers fill stroke"
       d="m 45.736327,-73 c -4.740192,0 -8.554687,3.8145 -8.554687,8.55469 v 90.89258 c 0,4.74019 3.814495,8.55664 8.554687,8.55664 H 88.44336 C 93.183552,35.00391 97,31.18746 97,26.44727 V -64.44531 C 96.999999,-69.1855 93.183551,-73 88.443359,-73 Z m -1.736328,3.00391 a 4,4 0 0 1 4,4 4,4 0 0 1 -4,4 4,4 0 0 1 -4,-4 4,4 0 0 1 4,-4 z m 15.892578,101 h 14.214846 c 0.494643,0 0.892578,0.446 0.892578,1 0,0.554 -0.397935,1 -0.892578,1 H 59.892577 c -0.494644,0 -0.892578,-0.446 -0.892578,-1 0,-0.554 0.397934,-1 0.892578,-1 z" />
  </g>
</svg>
